<?xml version="1.0" encoding="utf-8"?>
<!-- Generator: Adobe Illustrator 26.1.0, SVG Export Plug-In . SVG Version: 6.00 Build 0)  -->
<svg version="1.1" id="Calque_1" xmlns="http://www.w3.org/2000/svg" xmlns:xlink="http://www.w3.org/1999/xlink" x="0px" y="0px"
	 viewBox="0 0 390.4 211.8" style="enable-background:new 0 0 390.4 211.8;" xml:space="preserve">
<style type="text/css">
	.st0{clip-path:url(#SVGID_00000062909060072802433520000013445498437866287752_);fill:#E5261D;}
	.st1{clip-path:url(#SVGID_00000005243530843966645170000009518578823433662131_);fill:#E5261D;}
	.st2{clip-path:url(#SVGID_00000026844891500022220390000003442795517548915613_);fill:#E5261D;}
	.st3{clip-path:url(#SVGID_00000028311804907855840070000015983994813152992143_);fill:#E5261D;}
	.st4{clip-path:url(#SVGID_00000165218838434495577140000009831758135674858637_);fill:#E5261D;}
	.st5{clip-path:url(#SVGID_00000120529332880489787140000015855312905870176652_);fill:#E5261D;}
	.st6{clip-path:url(#SVGID_00000141452592059762126880000005885168963096833448_);fill:#E5261D;}
	.st7{clip-path:url(#SVGID_00000060737399137962767380000017698096727448086935_);fill:#E5261D;}
	.st8{clip-path:url(#SVGID_00000001651828527906128880000007068823317528268977_);fill:#E5261D;}
	.st9{clip-path:url(#SVGID_00000125599314161996362930000002466347881004823730_);fill:#E5261D;}
	.st10{clip-path:url(#SVGID_00000160890458418370303730000002834226119526537113_);fill:#E5261D;}
	
		.st11{clip-path:url(#SVGID_00000060031828545590502920000004605229928201268635_);fill:none;stroke:#E5261D;stroke-width:2.958;stroke-miterlimit:10;}
</style>
<g id="Calque_1_00000098931768744810882970000017783583631396725177_">
	<g>
		<g>
			<g>
				<g>
					<defs>
						<rect id="SVGID_1_" width="390.4" height="211.8"/>
					</defs>
					<clipPath id="SVGID_00000028313561182826867450000015720980943043230347_">
						<use xlink:href="#SVGID_1_"  style="overflow:visible;"/>
					</clipPath>
					<path style="clip-path:url(#SVGID_00000028313561182826867450000015720980943043230347_);fill:#E5261D;" d="M390.4,5.9
						c-1.3,3.4-2.5,6.8-3.8,10.1c-1.8,4.8-3.6,9.5-5.4,14.3c-2.1,5.5-4.2,11.1-6.4,16.6c-1.4,3.6-2.8,7.2-4.1,10.7
						c-2.1,5.4-4.1,10.8-6.2,16.3c-2,5.3-4,10.6-6.1,15.8c-2.1,5.5-4.2,11-6.3,16.4c-1.4,3.6-2.8,7.2-4.1,10.7
						c-2.2,5.7-4.3,11.4-6.5,17.1c-0.7,1.8-1.5,3.6-2.4,5.4c-0.7,1.3-1.6,2.4-3.1,2.9c-0.4,0.2-0.9,0.3-1.4,0.3
						c-7.9,0-15.7,0-23.6,0c-1.3,0-2.6-0.3-3.3-1.5c-0.7-1.1-1.3-2.2-1.8-3.4c-1.4-3.2-2.6-6.4-3.9-9.7c-1.7-4.5-3.4-9-5.1-13.5
						c-2-5.3-4-10.6-6-15.9c-1.6-4.2-3.2-8.5-4.8-12.7c-1.6-4.3-3.3-8.6-4.9-12.9c-1.3-3.4-2.6-6.8-3.9-10.2
						c-1.7-4.5-3.4-9-5.2-13.6c-1.3-3.4-2.6-6.8-3.9-10.2c-1.8-4.7-3.5-9.3-5.3-14c-1.5-3.8-2.9-7.7-4.4-11.5
						c-0.9-2.3-1.7-4.6-2.6-6.9c-0.2-0.6-0.4-1.2-0.4-1.9c-0.1-1.2,0.7-2.2,1.9-2.5c0.6-0.1,1.3-0.2,1.9-0.2c9.8,0,19.7,0,29.5,0
						c2.9,0,4.5,1.1,5.4,3.9c1.5,4.4,2.9,8.9,4.4,13.3c0.9,2.7,1.8,5.4,2.8,8.2c1.1,3.3,2.2,6.6,3.3,9.9c0.9,2.7,1.9,5.5,2.8,8.2
						c1,3,2,6,3,9c0.9,2.6,1.8,5.3,2.7,7.9c1.5,4.6,3,9.1,4.6,13.7c1.6,4.7,3.1,9.3,4.7,14c0.2,0.5,0.3,1.1,0.6,1.6
						c0.2-0.7,0.5-1.4,0.7-2c1.5-4.3,3-8.6,4.5-12.8c1.3-3.9,2.6-7.9,3.9-11.8c1.6-5,3.2-10,4.9-15.1c1-3.1,2-6.3,3-9.4
						c1.3-4,2.6-8,3.9-12.1c1.3-4,2.6-7.9,4-11.8c1.3-3.7,2.6-7.4,3.9-11.2c0.8-2.2,2.6-3.4,4.9-3.4c5.7,0,11.5,0,17.2,0
						c4.2,0,8.3,0,12.5,0c0.5,0,1,0.1,1.4,0.1c1.3,0.1,2.3,0.8,2.7,2.1v1.7C390.6,5.9,390.4,5.9,390.4,5.9z"/>
				</g>
			</g>
		</g>
		<g>
			<g>
				<g>
					<defs>
						<rect id="SVGID_00000166661903618135737350000000573719574067443110_" width="390.4" height="211.8"/>
					</defs>
					<clipPath id="SVGID_00000165197223070940722600000016953960384440193695_">
						<use xlink:href="#SVGID_00000166661903618135737350000000573719574067443110_"  style="overflow:visible;"/>
					</clipPath>
					<path style="clip-path:url(#SVGID_00000165197223070940722600000016953960384440193695_);fill:#E5261D;" d="M73.8,0
						c1,0.1,2,0.2,3,0.2c5,0.4,10,1.2,14.8,2.6c5,1.5,9.9,3.4,14.5,6c2.2,1.3,4.4,2.6,6.5,4c0.9,0.6,1.6,1.5,1.9,2.7
						c0.3,1.2-0.1,2.2-0.7,3.1c-1.9,2.8-3.9,5.6-5.8,8.3c-1.7,2.5-3.5,4.9-5.2,7.4c-1.5,2.2-3,4.3-4.5,6.5c-0.4,0.5-0.8,1.1-1.3,1.5
						c-1.1,0.9-2.3,0.8-3.8-0.2c-1.2-0.8-2.3-1.6-3.4-2.3c-2.9-1.8-6-3-9.3-3.9c-4-1.1-8-1.4-12.2-1.1c-3.7,0.3-7.2,1.1-10.6,2.5
						c-4.9,2-9.2,5.1-12.7,9.1c-3.2,3.7-5.6,7.8-7.1,12.4c-0.7,2.1-1.1,4.3-1.7,6.4c0,0.1,0,0.2-0.1,0.3H0c0.2-1.3,0.3-2.6,0.5-3.8
						c0.6-4.3,1.6-8.5,3-12.6c1.5-4.5,3.4-8.7,5.7-12.8c2.5-4.3,5.3-8.3,8.6-12.1c2.7-3.1,5.6-5.9,8.7-8.4c4.4-3.6,9.2-6.6,14.3-9
						c4.3-2,8.8-3.7,13.5-4.8c3.3-0.8,6.7-1.4,10.2-1.7c1.4-0.1,2.8-0.2,4.2-0.3c0.3,0.1,0.6,0,0.9,0H73.8z"/>
				</g>
			</g>
		</g>
		<g>
			<g>
				<g>
					<defs>
						<rect id="SVGID_00000140700473062814716530000010793004200821817271_" width="390.4" height="211.8"/>
					</defs>
					<clipPath id="SVGID_00000005232896496952434200000002451051395820918169_">
						<use xlink:href="#SVGID_00000140700473062814716530000010793004200821817271_"  style="overflow:visible;"/>
					</clipPath>
					<path style="clip-path:url(#SVGID_00000005232896496952434200000002451051395820918169_);fill:#E5261D;" d="M199,0
						c1,0.1,2,0.2,3.1,0.2c5,0.4,10,1.2,14.8,2.6c5.6,1.6,11,3.9,16,6.9c1.7,1,3.3,2,4.9,3.1c1.9,1.3,2.9,3.4,1,6.1
						c-2.6,3.7-5.2,7.5-7.8,11.2c-2.6,3.7-5.1,7.3-7.7,11c-0.3,0.5-0.7,1-1.2,1.3c-1.2,0.9-2.4,0.7-4-0.3c-1.1-0.8-2.2-1.6-3.4-2.3
						c-3.2-1.9-6.6-3.3-10.2-4.1c-3.6-0.8-7.2-1.1-10.8-0.8c-3.7,0.3-7.3,1-10.7,2.5c-4.9,2-9.2,5-12.7,9c-2.8,3.1-4.9,6.7-6.5,10.6
						c-1.1,2.6-1.8,5.3-2.3,8.1c0,0.2-0.1,0.4-0.1,0.6h-36.1c0.4-2.5,0.7-5,1.1-7.5c0.7-3.6,1.7-7,2.9-10.4
						c1.4-3.9,3.2-7.7,5.3-11.4c4.2-7.4,9.6-13.8,16-19.3c4.4-3.7,9.2-6.8,14.3-9.4c3.7-1.8,7.6-3.4,11.5-4.6
						c3.7-1.1,7.4-2,11.2-2.4c2.1-0.2,4.3-0.4,6.4-0.6c0.3,0,0.6-0.1,0.8-0.1C194.8,0,199,0,199,0z"/>
				</g>
			</g>
		</g>
		<g>
			<g>
				<g>
					<defs>
						<rect id="SVGID_00000062187090790368883490000000969595757250507965_" width="390.4" height="211.8"/>
					</defs>
					<clipPath id="SVGID_00000173881983286840271700000000960106268752531645_">
						<use xlink:href="#SVGID_00000062187090790368883490000000969595757250507965_"  style="overflow:visible;"/>
					</clipPath>
					<path style="clip-path:url(#SVGID_00000173881983286840271700000000960106268752531645_);fill:#E5261D;" d="M0.1,79.1
						c0.3,0,0.5,0,0.8,0c11.5,0,22.9,0,34.4,0c0.7,0,0.9,0.2,1,0.9c0.9,5.1,2.8,9.8,5.6,14.2c2.9,4.4,6.6,8,11,10.7
						c4.3,2.6,9,4.2,14,4.7c4,0.4,7.9,0.2,11.8-0.6c4.2-0.9,8.1-2.5,11.7-4.7c0.9-0.6,1.8-1.3,2.8-1.9c1.1-0.7,2.3-1.3,3.6-0.5
						c0.5,0.3,1,0.8,1.4,1.3c2.9,4.2,5.8,8.4,8.7,12.6c2.4,3.5,4.9,7,7.2,10.6c1.3,2,0.9,3.8-1,5.2s-4,2.7-6.1,3.9
						c-2.5,1.4-5.1,2.6-7.7,3.8c-3.5,1.6-7.2,2.7-10.9,3.6c-7.2,1.8-14.5,2.2-21.8,1.8c-4.6-0.3-9.1-1-13.6-2.2
						c-4.7-1.3-9.3-3-13.6-5.2c-3.7-1.9-7.3-4.1-10.6-6.6c-2.9-2.2-5.7-4.6-8.3-7.2c-3.1-3.1-5.9-6.4-8.3-10.1
						c-1.6-2.5-3.2-5-4.6-7.6c-2-3.8-3.6-7.9-4.8-12.1c-1.1-3.5-1.9-7-2.3-10.6c-0.1-0.9-0.3-1.9-0.4-2.8C0,79.9,0.1,79.6,0.1,79.1"
						/>
				</g>
			</g>
		</g>
		<g>
			<g>
				<g>
					<defs>
						<rect id="SVGID_00000098202425061180137150000002335058920694811273_" width="390.4" height="211.8"/>
					</defs>
					<clipPath id="SVGID_00000084501490529199580340000010064568355702127794_">
						<use xlink:href="#SVGID_00000098202425061180137150000002335058920694811273_"  style="overflow:visible;"/>
					</clipPath>
					<path style="clip-path:url(#SVGID_00000084501490529199580340000010064568355702127794_);fill:#E5261D;" d="M125.3,79.1h0.8
						c11.5,0,22.9,0,34.4,0c0.6,0,0.8,0.2,1,0.8c0.8,4.4,2.3,8.5,4.5,12.4c2,3.4,4.4,6.4,7.4,9c4.2,3.6,8.9,6.1,14.3,7.5
						c3.9,1,7.9,1.3,11.9,0.9c5.8-0.6,11.3-2.3,16.2-5.5c0.9-0.6,1.7-1.2,2.6-1.7c0.6-0.3,1.1-0.7,1.8-0.8c1.5-0.4,2.5,0.3,3.5,1.7
						c1.5,2.2,3,4.3,4.5,6.5c2.1,3,4.2,6.1,6.3,9.1c1.5,2.2,3.1,4.4,4.6,6.6c0.2,0.3,0.5,0.6,0.6,1c1,1.8,0.6,3.8-1.1,4.9
						c-2,1.4-4.1,2.8-6.2,3.9c-2.4,1.3-5,2.5-7.5,3.7c-3.3,1.4-6.6,2.5-10.1,3.4c-3.9,1-7.9,1.8-11.9,1.9c-3.6,0.1-7.3,0.3-10.9,0.1
						c-4.6-0.2-9.1-1-13.6-2.2c-5.5-1.5-10.7-3.5-15.7-6.2c-3.9-2.1-7.6-4.6-11.1-7.5c-3.1-2.6-6-5.3-8.7-8.4
						c-2.8-3.2-5.3-6.6-7.5-10.2c-2.1-3.4-3.8-6.9-5.3-10.6c-1.7-4.2-3-8.6-3.8-13.1c-0.4-2.2-0.6-4.4-0.9-6.6
						C125.3,79.6,125.3,79.4,125.3,79.1"/>
				</g>
			</g>
		</g>
		<g>
			<g>
				<g>
					<defs>
						<rect id="SVGID_00000068659560368974598450000004279498591905914028_" width="390.4" height="211.8"/>
					</defs>
					<clipPath id="SVGID_00000154414740700559597630000002421824435416973727_">
						<use xlink:href="#SVGID_00000068659560368974598450000004279498591905914028_"  style="overflow:visible;"/>
					</clipPath>
					<path style="clip-path:url(#SVGID_00000154414740700559597630000002421824435416973727_);fill:#E5261D;" d="M327.1,178.1
						c-0.3,0.8-0.6,1.5-0.8,2.2c-0.4,1.1-0.8,2.1-1.2,3.2c-0.5,1.2-0.9,2.5-1.4,3.7c-0.3,0.8-0.6,1.6-0.9,2.4
						c-0.5,1.2-0.9,2.4-1.4,3.6c-0.4,1.2-0.9,2.3-1.3,3.5c-0.5,1.2-0.9,2.4-1.4,3.6c-0.3,0.8-0.6,1.6-0.9,2.4
						c-0.5,1.3-1,2.5-1.4,3.8c-0.2,0.4-0.3,0.8-0.5,1.2c-0.1,0.3-0.4,0.5-0.7,0.7c-0.1,0-0.2,0.1-0.3,0.1c-1.7,0-3.5,0-5.2,0
						c-0.3,0-0.6-0.1-0.7-0.3c-0.2-0.2-0.3-0.5-0.4-0.8c-0.3-0.7-0.6-1.4-0.9-2.1c-0.4-1-0.8-2-1.1-3c-0.4-1.2-0.9-2.4-1.3-3.5
						c-0.4-0.9-0.7-1.9-1.1-2.8c-0.4-1-0.7-1.9-1.1-2.9c-0.3-0.8-0.6-1.5-0.9-2.3c-0.4-1-0.8-2-1.1-3c-0.3-0.8-0.6-1.5-0.9-2.3
						c-0.4-1-0.8-2.1-1.2-3.1c-0.3-0.9-0.7-1.7-1-2.6c-0.2-0.5-0.4-1-0.6-1.5c0-0.1-0.1-0.3-0.1-0.4c0-0.3,0.2-0.5,0.4-0.6
						c0.1,0,0.3,0,0.4,0c2.2,0,4.4,0,6.5,0c0.7,0,1,0.2,1.2,0.9c0.3,1,0.6,2,1,2.9c0.2,0.6,0.4,1.2,0.6,1.8c0.2,0.7,0.5,1.5,0.7,2.2
						c0.2,0.6,0.4,1.2,0.6,1.8c0.2,0.7,0.4,1.3,0.7,2c0.2,0.6,0.4,1.2,0.6,1.8c0.3,1,0.7,2,1,3s0.7,2.1,1,3.1c0,0.1,0.1,0.2,0.1,0.4
						c0.1-0.1,0.1-0.3,0.2-0.5c0.3-0.9,0.7-1.9,1-2.8c0.3-0.9,0.6-1.8,0.9-2.6c0.4-1.1,0.7-2.2,1.1-3.3c0.2-0.7,0.4-1.4,0.7-2.1
						c0.3-0.9,0.6-1.8,0.9-2.7s0.6-1.8,0.9-2.6s0.6-1.7,0.9-2.5c0.2-0.5,0.6-0.8,1.1-0.8c1.3,0,2.5,0,3.8,0c0.9,0,1.8,0,2.8,0
						c0.1,0,0.2,0,0.3,0c0.3,0,0.5,0.2,0.6,0.5v0.3H327.1L327.1,178.1z"/>
				</g>
			</g>
		</g>
		<g>
			<g>
				<g>
					<defs>
						<rect id="SVGID_00000071527896988512700670000017080386102049736081_" width="390.4" height="211.8"/>
					</defs>
					<clipPath id="SVGID_00000065062126983174297080000018046509413875165097_">
						<use xlink:href="#SVGID_00000071527896988512700670000017080386102049736081_"  style="overflow:visible;"/>
					</clipPath>
					<path style="clip-path:url(#SVGID_00000065062126983174297080000018046509413875165097_);fill:#E5261D;" d="M89,177.2
						c0.2,0,0.4,0,0.6,0.1c1.1,0.1,2.1,0.3,3.2,0.6s2.1,0.7,3.1,1.3c0.5,0.3,0.9,0.6,1.4,0.9c0.2,0.1,0.3,0.3,0.4,0.6
						c0.1,0.2,0,0.5-0.2,0.7c-0.4,0.6-0.8,1.2-1.3,1.8c-0.4,0.5-0.7,1.1-1.1,1.6c-0.3,0.5-0.6,0.9-1,1.4c-0.1,0.1-0.2,0.2-0.3,0.3
						c-0.2,0.2-0.5,0.2-0.8,0c-0.2-0.2-0.5-0.3-0.7-0.5c-0.6-0.4-1.3-0.7-2-0.8c-0.9-0.2-1.7-0.3-2.6-0.2c-0.8,0.1-1.5,0.2-2.3,0.5
						c-1.1,0.4-2,1.1-2.7,2c-0.7,0.8-1.2,1.7-1.5,2.7c-0.1,0.5-0.2,0.9-0.4,1.4c0,0,0,0,0,0.1h-7.7c0-0.3,0.1-0.6,0.1-0.8
						c0.1-0.9,0.3-1.8,0.6-2.7c0.3-1,0.7-1.9,1.2-2.8c0.5-0.9,1.1-1.8,1.8-2.6c0.6-0.7,1.2-1.3,1.9-1.8c0.9-0.8,2-1.4,3.1-1.9
						c0.9-0.4,1.9-0.8,2.9-1c0.7-0.2,1.5-0.3,2.2-0.4c0.3,0,0.6,0,0.9-0.1c0.1,0,0.1,0,0.2,0h1L89,177.2L89,177.2z"/>
				</g>
			</g>
		</g>
		<g>
			<g>
				<g>
					<defs>
						<rect id="SVGID_00000094610339167155464180000016576372437337368973_" width="390.4" height="211.8"/>
					</defs>
					<clipPath id="SVGID_00000018221715201966113240000013714950556922591387_">
						<use xlink:href="#SVGID_00000094610339167155464180000016576372437337368973_"  style="overflow:visible;"/>
					</clipPath>
					<path style="clip-path:url(#SVGID_00000018221715201966113240000013714950556922591387_);fill:#E5261D;" d="M73.1,194.3
						c0.1,0,0.1,0,0.2,0c2.5,0,4.9,0,7.4,0c0.1,0,0.2,0.1,0.2,0.2c0.2,1.1,0.6,2.1,1.2,3.1c0.6,0.9,1.4,1.7,2.4,2.3
						c0.9,0.6,1.9,0.9,3,1c0.9,0.1,1.7,0,2.5-0.1c0.9-0.2,1.7-0.5,2.5-1c0.2-0.1,0.4-0.3,0.6-0.4s0.5-0.3,0.8-0.1
						c0.1,0.1,0.2,0.2,0.3,0.3c0.6,0.9,1.3,1.8,1.9,2.7c0.5,0.8,1.1,1.5,1.6,2.3c0.3,0.4,0.2,0.8-0.2,1.1c-0.4,0.3-0.9,0.6-1.3,0.8
						c-0.5,0.3-1.1,0.6-1.7,0.8c-0.8,0.3-1.5,0.6-2.3,0.8c-1.5,0.4-3.1,0.5-4.7,0.4c-1-0.1-2-0.2-2.9-0.5c-1-0.3-2-0.6-2.9-1.1
						c-0.8-0.4-1.6-0.9-2.3-1.4c-0.6-0.5-1.2-1-1.8-1.5c-0.7-0.7-1.3-1.4-1.8-2.2c-0.3-0.5-0.7-1.1-1-1.6c-0.4-0.8-0.8-1.7-1.1-2.6
						c-0.2-0.8-0.4-1.5-0.5-2.3c0-0.2-0.1-0.4-0.1-0.6C73.1,194.5,73.1,194.4,73.1,194.3"/>
				</g>
			</g>
		</g>
		<g>
			<g>
				<g>
					<defs>
						<rect id="SVGID_00000151509068246168862270000007829993415638809252_" width="390.4" height="211.8"/>
					</defs>
					<clipPath id="SVGID_00000123421682774458027730000000177495553565898380_">
						<use xlink:href="#SVGID_00000151509068246168862270000007829993415638809252_"  style="overflow:visible;"/>
					</clipPath>
					<path style="clip-path:url(#SVGID_00000123421682774458027730000000177495553565898380_);fill:#E5261D;" d="M338.6,208.2h17.9
						v-5.8h-11.9v-3h9.8V194h-9.8v-3.4h11.9v-5.8h-17.9V208.2z M326.3,208.2h6v-23.4h-6V208.2z M280.2,199.4h-5.1l2.6-6.9
						L280.2,199.4z M274.7,184.9l-9.5,23.4h6.5l1.3-3.4h9.2l1.3,3.4h6.5l-9.4-23.4H274.7z M245,208.2h17.1v-5.8H251v-17.6h-6V208.2z
						 M210.4,208.2h17.9v-5.8h-11.9v-3h9.8V194h-9.8v-3.4h11.9v-5.8h-17.9V208.2z M193.5,199.6h5.7v0.7c-1.1,1.6-2.9,2.7-5,2.7
						c-3.5,0-6.3-2.8-6.3-6.4c0-3.5,2.8-6.4,6.3-6.4c2,0,3.8,0.9,5,2.4l4.9-3.3c-2.2-2.9-5.9-4.9-9.9-4.9c-6.8,0-12.4,5.5-12.4,12.1
						c0,6.7,5.6,12.1,12.4,12.1c2.4,0,4.8-0.9,5.9-2.6v2.2h4.7v-13.6h-11.2L193.5,199.6L193.5,199.6z M161.1,208.2v-13l10.4,13h5.1
						v-23.4h-6v13.1l-10.4-13.1h-5.1v23.4H161.1z M140.8,199.4h-5.1l2.6-6.9L140.8,199.4z M135.3,184.9l-9.5,23.4h6.5l1.3-3.4h9.2
						l1.3,3.4h6.5l-9.4-23.4H135.3z M115.3,184.9v9.1h-9.5v-9.1h-6v23.4h6v-8.7h9.5v8.7h6v-23.4H115.3z M53.8,199.4h-5.1l2.6-6.9
						L53.8,199.4z M48.3,184.9l-9.5,23.4h6.5l1.3-3.4h9.2l1.3,3.4h6.5l-9.4-23.4H48.3z"/>
				</g>
			</g>
		</g>
		<g>
			<g>
				<g>
					<defs>
						<rect id="SVGID_00000139251428646167675090000004194649515943153314_" width="390.4" height="211.8"/>
					</defs>
					<clipPath id="SVGID_00000182516291456256540310000006503653538997227160_">
						<use xlink:href="#SVGID_00000139251428646167675090000004194649515943153314_"  style="overflow:visible;"/>
					</clipPath>
					<path style="clip-path:url(#SVGID_00000182516291456256540310000006503653538997227160_);fill:#E5261D;" d="M30,177.2
						c0.2,0,0.4,0,0.6,0c1.1,0.1,2.1,0.3,3.2,0.6c1.1,0.3,2.1,0.7,3.1,1.3c0.5,0.3,0.9,0.6,1.4,0.9c0.2,0.1,0.3,0.3,0.4,0.6
						c0.1,0.2,0,0.5-0.2,0.7c-0.4,0.6-0.8,1.2-1.2,1.8c-0.4,0.5-0.7,1.1-1.1,1.6c-0.3,0.5-0.6,0.9-1,1.4c-0.1,0.1-0.2,0.2-0.3,0.3
						c-0.2,0.2-0.5,0.2-0.8,0c-0.2-0.2-0.5-0.3-0.7-0.5c-0.6-0.4-1.3-0.7-2-0.8c-0.9-0.2-1.7-0.3-2.6-0.2c-0.8,0.1-1.5,0.2-2.3,0.5
						c-1.1,0.4-2,1.1-2.7,1.9c-0.7,0.8-1.2,1.7-1.5,2.7c-0.1,0.4-0.2,0.9-0.4,1.4c0,0,0,0,0,0.1h-7.7c0-0.3,0.1-0.5,0.1-0.8
						c0.1-0.9,0.3-1.8,0.6-2.7c0.3-1,0.7-1.9,1.2-2.7c0.5-0.9,1.1-1.8,1.8-2.6c0.6-0.7,1.2-1.3,1.9-1.8c0.9-0.8,2-1.4,3.1-1.9
						c0.9-0.4,1.9-0.8,2.9-1c0.7-0.2,1.4-0.3,2.2-0.4c0.3,0,0.6,0,0.9-0.1c0.1,0,0.1,0,0.2,0H30L30,177.2L30,177.2z"/>
				</g>
			</g>
		</g>
		<g>
			<g>
				<g>
					<defs>
						<rect id="SVGID_00000180358083309582513860000011219990647165461908_" width="390.4" height="211.8"/>
					</defs>
					<clipPath id="SVGID_00000082331271188953178040000006403243976385629828_">
						<use xlink:href="#SVGID_00000180358083309582513860000011219990647165461908_"  style="overflow:visible;"/>
					</clipPath>
					<path style="clip-path:url(#SVGID_00000082331271188953178040000006403243976385629828_);fill:#E5261D;" d="M14.3,194.2
						c0.1,0,0.1,0,0.2,0c2.4,0,4.9,0,7.3,0c0.1,0,0.2,0.1,0.2,0.2c0.2,1.1,0.6,2.1,1.2,3s1.4,1.7,2.4,2.3c0.9,0.6,1.9,0.9,3,1
						c0.8,0.1,1.7,0,2.5-0.1c0.9-0.2,1.7-0.5,2.5-1c0.2-0.1,0.4-0.3,0.6-0.4s0.5-0.3,0.8-0.1c0.1,0.1,0.2,0.2,0.3,0.3
						c0.6,0.9,1.2,1.8,1.9,2.7c0.5,0.8,1,1.5,1.5,2.3c0.3,0.4,0.2,0.8-0.2,1.1c-0.4,0.3-0.8,0.6-1.3,0.8c-0.5,0.3-1.1,0.6-1.6,0.8
						c-0.8,0.3-1.5,0.6-2.3,0.8c-1.5,0.4-3.1,0.5-4.7,0.4c-1-0.1-2-0.2-2.9-0.5c-1-0.3-2-0.6-2.9-1.1c-0.8-0.4-1.6-0.9-2.3-1.4
						c-0.6-0.5-1.2-1-1.8-1.5c-0.7-0.7-1.3-1.4-1.8-2.2c-0.3-0.5-0.7-1.1-1-1.6c-0.4-0.8-0.8-1.7-1.1-2.6c-0.2-0.7-0.4-1.5-0.5-2.3
						c0-0.2-0.1-0.4-0.1-0.6C14.3,194.3,14.3,194.3,14.3,194.2"/>
				</g>
			</g>
		</g>
		<g>
			<g>
				<g>
					<defs>
						<rect id="SVGID_00000126301113774712042370000003813077154300962735_" width="390.4" height="211.8"/>
					</defs>
					<clipPath id="SVGID_00000168076434771515645010000003311957614086175123_">
						<use xlink:href="#SVGID_00000126301113774712042370000003813077154300962735_"  style="overflow:visible;"/>
					</clipPath>
					
						<line style="clip-path:url(#SVGID_00000168076434771515645010000003311957614086175123_);fill:none;stroke:#E5261D;stroke-width:2.958;stroke-miterlimit:10;" x1="28.5" y1="207" x2="28.5" y2="211.8"/>
				</g>
			</g>
		</g>
	</g>
</g>
</svg>
