<?xml version="1.0" standalone="no"?>
<!DOCTYPE svg PUBLIC "-//W3C//DTD SVG 20010904//EN"
 "http://www.w3.org/TR/2001/REC-SVG-20010904/DTD/svg10.dtd">
<svg version="1.0" xmlns="http://www.w3.org/2000/svg"
 width="557.000000pt" height="534.000000pt" viewBox="0 0 557.000000 534.000000"
 preserveAspectRatio="xMidYMid meet">

<g transform="translate(0.000000,534.000000) scale(0.100000,-0.100000)"
fill="#000000" stroke="none">
<path d="M2550 5145 c-522 -65 -1019 -305 -1384 -669 -374 -373 -596 -807
-688 -1342 -29 -174 -32 -532 -4 -699 38 -237 89 -418 173 -615 302 -708 951
-1238 1712 -1396 286 -59 676 -59 962 0 386 81 750 258 1058 516 457 383 746
915 833 1535 17 118 16 474 -1 595 -75 545 -318 1032 -701 1410 -375 368 -862
602 -1390 666 -142 17 -429 16 -570 -1z m582 -211 c344 -42 706 -188 1000
-404 122 -89 315 -274 407 -389 265 -333 425 -724 472 -1151 16 -148 6 -445
-20 -590 -94 -524 -355 -974 -762 -1315 -654 -547 -1582 -656 -2354 -275 -584
288 -1017 836 -1161 1470 -170 752 60 1527 612 2060 487 470 1121 678 1806
594z"/>
<path d="M2780 4679 c-254 -192 -428 -387 -535 -604 -81 -163 -106 -265 -112
-457 -9 -256 29 -415 162 -677 41 -82 75 -151 75 -155 0 -3 -20 -6 -45 -6 -43
0 -47 2 -73 46 -189 320 -513 532 -879 575 -235 28 -422 -59 -504 -235 -80
-172 -58 -275 157 -708 107 -218 135 -301 113 -337 -15 -24 -51 -41 -84 -41
-31 0 -31 -8 1 -73 39 -76 137 -168 229 -213 64 -31 87 -38 138 -38 108 1 161
45 201 168 6 18 15 19 159 13 168 -7 218 -17 253 -52 33 -33 31 -76 -6 -154
-64 -136 -159 -261 -260 -344 l-45 -37 35 0 c65 0 170 29 240 66 97 51 198
148 292 281 113 159 154 192 209 163 25 -14 24 -33 -7 -131 -49 -156 -124
-306 -207 -417 -24 -31 -36 -57 -31 -62 40 -38 582 -429 590 -426 20 7 584
427 584 434 0 4 -20 34 -45 67 -64 86 -147 254 -189 383 -20 61 -36 119 -36
127 0 19 47 38 76 31 28 -7 96 -83 173 -194 134 -194 292 -299 478 -318 l68
-7 -83 78 c-118 111 -236 295 -248 389 -6 38 -3 48 19 70 37 37 96 48 260 50
l149 1 18 -49 c35 -91 90 -129 187 -130 51 0 74 7 137 37 117 58 231 175 251
260 7 25 5 27 -23 27 -18 0 -43 11 -62 26 -51 44 -41 79 123 414 58 118 120
257 137 309 28 83 31 105 28 181 -3 76 -8 95 -40 162 -65 130 -174 206 -332
229 -134 20 -326 -15 -512 -92 -176 -73 -384 -251 -499 -427 l-60 -92 -47 0
-47 0 73 148 c87 173 116 251 145 389 26 127 29 340 5 463 -45 237 -168 454
-379 666 -103 103 -294 264 -314 264 -3 0 -31 -19 -61 -41z m192 -2044 l3
-195 114 90 114 90 87 0 c48 0 90 -3 93 -6 4 -4 -55 -56 -131 -115 -75 -60
-138 -112 -139 -116 -1 -5 65 -60 147 -123 l149 -115 -99 -3 -100 -3 -118 92
-117 91 -3 -91 -3 -91 -64 0 -65 0 0 345 0 345 65 0 65 0 2 -195z m-320 -47
c91 -39 138 -115 138 -225 l0 -53 -160 0 -160 0 0 50 0 50 95 0 c54 0 95 4 95
10 0 32 -81 70 -150 70 -46 0 -115 -33 -130 -61 -20 -36 -14 -98 11 -125 33
-36 79 -44 242 -44 l147 0 0 -60 0 -60 -177 0 c-166 0 -181 2 -228 24 -90 42
-135 112 -135 209 0 186 217 299 412 215z m1071 6 c101 -36 147 -102 147 -214
l0 -70 -155 0 -155 0 0 50 0 50 90 0 c74 0 90 3 90 15 0 20 -54 52 -102 60
-129 22 -224 -67 -173 -164 25 -49 75 -61 250 -61 l155 0 0 -60 0 -60 -177 0
c-122 1 -190 5 -216 14 -96 35 -152 117 -151 221 2 183 196 290 397 219z
m-1703 -43 l0 -58 -112 -5 c-110 -5 -111 -5 -140 -36 -28 -32 -28 -33 -28
-173 l0 -140 -62 3 -63 3 -3 119 c-3 154 8 211 55 266 57 66 97 80 236 80
l117 0 0 -59z m170 -176 l0 -235 -65 0 -65 0 0 235 0 235 65 0 65 0 0 -235z
m2130 176 l0 -58 -112 -5 c-110 -5 -111 -5 -140 -36 -28 -32 -28 -33 -28 -172
l0 -140 -60 0 -60 0 0 154 c0 85 4 166 9 179 16 40 73 99 116 118 31 15 66 19
158 19 l117 0 0 -59z"/>
</g>
</svg>
