<?xml version="1.0" encoding="utf-8"?>
<!-- Generator: Adobe Illustrator 25.4.1, SVG Export Plug-In . SVG Version: 6.00 Build 0)  -->
<svg version="1.1" id="Calque_1" xmlns="http://www.w3.org/2000/svg" xmlns:xlink="http://www.w3.org/1999/xlink" x="0px" y="0px"
	 viewBox="0 0 1027.3 1013.4" style="enable-background:new 0 0 1027.3 1013.4;" xml:space="preserve">
<g>
	<path d="M644.9,239.6c-3.6,0-6.9,0.7-9.8,2.1c-2.9,1.4-5.4,3.4-7.4,6c-2,2.6-3.6,5.9-4.7,9.6c-1.1,3.8-1.6,8.1-1.6,12.8
		c0,9.2,2,16.3,5.8,21.2c3.8,4.8,9.5,7.2,17.4,7.3c3.3,0,6.4-0.6,9.2-1.8c2.3-1,4.5-2.7,6.4-4.9l-5.6-5.1c-1.1,1-2.3,1.7-3.6,2.2
		c-1.7,0.6-3.7,0.9-6,0.9c-1.8,0-3.6-0.3-5.3-0.9c-1.7-0.6-3.3-1.5-4.7-2.6c-1.4-1.2-2.6-2.6-3.5-4.2c-0.9-1.7-1.4-3.6-1.4-5.7v-1.5
		l1.5-0.3h35.2c0-0.7,0-1.4,0.1-2.1c0.1-1.2,0.1-2.3,0.1-3.4c0.1-9.8-1.9-17.2-6-22.2C656.9,242,651.6,239.6,644.9,239.6z
		 M630.1,266.2l0.1-1.6c0.2-4.6,1.6-8.5,4.2-11.6c2.7-3.3,6.2-4.9,10.5-4.9c4,0,7.3,1.7,9.8,5c2.4,3.2,3.7,7,3.9,11.6l0.1,1.6H630.1
		z M571.9,219.6c-1.6,0-2.7,0.5-3.6,1.6c-0.9,1.2-1.4,2.8-1.4,4.7c0,1.8,0.5,3.3,1.4,4.5c0.9,1.1,2,1.7,3.5,1.7
		c1.2,0,2.3-0.6,3.4-1.7c1.1-1.2,1.6-2.7,1.6-4.4c0-1.9-0.5-3.4-1.5-4.6C574.3,220.2,573.2,219.6,571.9,219.6z M822.5,240.9
		c-2.3,0-4.2,0.6-6,1.7c-1.7,1.1-2.9,2.9-3.7,4.8l-2,5.3h-0.8l0-11.4h-8.5v56.6h8.5v-35.2c0-3.6,0.7-6.7,2.2-9.2
		c1.6-2.7,4.3-4.2,7.9-4.2c0.9,0,2,0.3,3.4,0.9l3-8.6C825.3,241.1,824,240.9,822.5,240.9z M745.3,275.3c0,4.3-1.3,7.8-3.7,10.5
		c-2.5,2.7-5.6,4.1-9.3,4.1c-3.8,0-6.8-1.4-8.8-4.3c-1.9-2.7-2.8-6.1-2.8-10.4v-34h-8.5v37.9c0,6,1.5,10.8,4.5,14.3
		c3,3.4,6.8,5.1,11.8,5.1c3,0,5.8-0.6,8.3-1.7c2.5-1.1,4.3-2.9,5.7-5.4l2.9-5.4v11.9h8.5v-56.6h-8.5V275.3z M567.6,297.9h8.5v-56.6
		h-8.5V297.9z M508.1,265.2c-4.4-1-7.8-2-10.4-3.2c-3.9-1.8-4.4-4.6-4.1-6.6c0.5-3.5,2.6-4.8,4.2-5.3c1.9-0.6,4.1-0.8,6.4-0.8
		c2.9,0,5.5,0.4,7.8,1c1.7,0.5,3.3,1.3,4.8,2.5l2.5-8.5c-3.8-2.5-8.5-3.7-14.1-3.7c-3.1,0-5.9,0.3-8.5,0.9c-2.5,0.6-4.7,1.6-6.5,2.8
		c-1.8,1.3-3.2,2.9-4.1,4.8c-1,2-1.5,4.4-1.5,7.1c0,3,0.5,5.4,1.5,7.3c1,1.8,2.4,3.4,4.1,4.6c1.7,1.2,3.8,2.2,6,2.9
		c2.3,0.7,4.9,1.2,7.5,1.7c3.7,0.6,6.2,1.7,7.8,3.3c1.7,1.6,2.5,3.6,2.5,5.8c0,3-1.3,5.2-3.7,6.6c-2.2,1.2-4.9,1.8-8.1,1.8
		c-2.8,0-5.6-0.3-8.5-0.9c-2.3-0.5-4.3-1.3-6.1-2.4l-3,7.6c2.5,1.4,5.1,2.4,7.6,3c2.9,0.8,5.7,1.1,8.3,1.1c3.1,0,6-0.3,8.8-1
		c2.7-0.7,5-1.7,7-3.1c1.9-1.4,3.4-3.2,4.6-5.4c1.1-2.2,1.7-4.9,1.7-8.1c0-4.8-1.3-8.4-3.8-10.7
		C516.2,267.9,512.6,266.1,508.1,265.2z M346.9,248.6c-2-2.6-4.4-4.6-7.1-6c-2.7-1.4-5.9-2.1-9.3-2.1c-3.3,0-6.4,0.7-9.1,2.2
		c-2.8,1.5-5.2,3.5-7.2,6.1c-2,2.6-3.6,5.7-4.7,9.3c-1.1,3.6-1.7,7.5-1.7,11.6c0,9.2,2,16.4,6.1,21.5c4,5,9.4,7.5,16.6,7.5
		c7.3,0,12.8-2.5,16.8-7.7c4-5.2,6.1-12.4,6.1-21.2c0-4.2-0.6-8.2-1.7-11.8C350.4,254.3,348.9,251.2,346.9,248.6z M330.6,289.9
		c-6.5,0-14.3-3.5-14.3-20.1c0-5.9,1.2-10.9,3.5-14.6c2.5-4,6-6,10.7-6c9.5,0,14.3,7,14.3,20.7C344.7,283.2,340,289.9,330.6,289.9z
		 M233.3,269.4l-1.4,4l-1.5-4l-16.8-45.8h-13.4v74.4h8.5v-63.5l3,7.9l20,52.7l18.8-52.5l3-8.4v63.8h8.5v-74.4h-12.4L233.3,269.4z
		 M423.7,240.7c-3.2,0-6.1,0.6-8.4,1.8c-2.3,1.2-4.1,3-5.3,5.4l-2.9,5.7v-12.3h-8.5v56.6h8.5v-35.4c0-4.3,1.2-7.7,3.7-9.9
		c2.4-2.3,5.5-3.4,9.1-3.4c3.7,0,6.6,1.2,8.7,3.5c2,2.3,3.1,5.6,3.1,9.9v35.4h8.5v-37.7c0-6-1.5-10.8-4.5-14.3
		C432.5,242.4,428.6,240.7,423.7,240.7z"/>
	<g>
		<path d="M385.6,351.8V778h-8V375l-82,273.3h-6.4l-80.4-268.6V778h-8.6V351.8h1.1h8.5l82.5,278.6l82.5-278.6H385.6z"/>
		<path d="M538.9,352.9l81,425.1h-8.5l-25.6-133.4H480.3L454.2,778h-9l83.1-425.1H538.9z M584.2,636.2l-50.6-266l-51.6,266H584.2z"
			/>
		<path d="M826.5,351.8l-77.8,225L817.9,778h-8.5l-65.5-188.6L678.4,778h-8.5l69.8-201.2l-78.8-225h9l74,211.8l73.5-211.8H826.5z"/>
	</g>
	<g id="XMLID_1_">
		<path id="XMLID_29_" d="M1020.6,6.7v1000H6.7V6.7H1020.6 M1027.3,0h-6.7H6.7H0v6.7v1000v6.7h6.7h1013.8h6.7v-6.7V6.7V0L1027.3,0z"
			/>
	</g>
</g>
</svg>
