<svg xmlns="http://www.w3.org/2000/svg" width="190" height="31" viewBox="0 0 190 31">
    <g fill="none" fill-rule="evenodd">
        <path fill="#1D7CD6" d="M85.5 0C94.06 0 101 6.94 101 15.5c0 8.56-6.94 15.5-15.5 15.5C76.94 31 70 24.06 70 15.5 70 6.94 76.94 0 85.5 0"/>
        <path fill="#231F20" d="M53.561 16.33h5.67c.53 0 .888-.069 1.072-.204.184-.135.275-.401.275-.797 0-.939-.337-1.763-1.01-2.472-.675-.71-1.502-1.064-2.483-1.064-.96 0-1.787.329-2.482.986a3.21 3.21 0 0 0-1.042 2.425v1.126zm-2.543 2.596V15.64c0-1.606.598-2.993 1.792-4.161 1.196-1.169 2.63-1.753 4.306-1.753 1.594 0 2.972.547 4.137 1.643C62.418 12.465 63 13.837 63 15.485c0 .605-.072 1.09-.215 1.455-.143.364-.363.625-.659.782a2.773 2.773 0 0 1-.827.297 6.67 6.67 0 0 1-1.027.062h-6.71v.938c0 1.147.403 2.066 1.21 2.754.806.689 1.853 1.032 3.14 1.032.674 0 1.262-.104 1.762-.31.5-.21.904-.415 1.21-.612.306-.198.551-.297.735-.297.286 0 .531.131.735.392.205.26.307.526.307.798 0 .478-.465.97-1.395 1.47-.93.501-2.079.75-3.447.75-2.002 0-3.636-.557-4.903-1.674-1.265-1.114-1.898-2.581-1.898-4.396zm-10.71 4.882V10.823c0-.272.118-.49.353-.658.235-.166.537-.25.904-.25.327 0 .603.084.828.25a.78.78 0 0 1 .337.658v1.47c.368-.708.909-1.314 1.624-1.814a4.069 4.069 0 0 1 2.39-.75h1.042c.266 0 .496.12.69.36.194.24.29.515.29.828 0 .313-.096.584-.29.814-.194.23-.424.344-.69.344h-1.041c-1.043 0-1.951.428-2.728 1.283-.776.855-1.164 1.96-1.164 3.317v7.134c0 .23-.128.443-.384.64a1.427 1.427 0 0 1-.904.298c-.347 0-.644-.093-.888-.28-.244-.189-.368-.41-.368-.66zm-13.803-4.882c0 .981.347 1.847 1.042 2.598.694.751 1.512 1.126 2.451 1.126.96 0 1.788-.38 2.482-1.141.695-.762 1.043-1.623 1.043-2.582v-3.192c0-.937-.348-1.782-1.043-2.534-.695-.75-1.522-1.126-2.482-1.126-.959 0-1.782.376-2.466 1.126-.684.752-1.027 1.596-1.027 2.534v3.19zm-2.543 0v-3.191c0-1.606.597-3.01 1.793-4.208 1.195-1.2 2.609-1.8 4.243-1.8 1.635 0 3.055.594 4.26 1.784 1.205 1.189 1.808 2.597 1.808 4.224v3.19c0 1.588-.608 2.995-1.824 4.226-1.215 1.23-2.63 1.846-4.244 1.846-1.613 0-3.023-.608-4.229-1.831-1.205-1.22-1.807-2.633-1.807-4.24zm-9.944 1.096V3.907c0-.25.133-.464.399-.64.265-.179.55-.267.858-.267.326 0 .623.088.888.266.265.178.398.392.398.641v6.008h3.862c.225 0 .409.104.551.313.143.207.215.448.215.719 0 .272-.072.507-.215.705a.652.652 0 0 1-.551.297h-3.86v8.073c0 .896.188 1.529.566 1.893.378.365 1.037.547 1.977.547h.95c.347 0 .618.11.812.328.194.219.29.484.29.8 0 .312-.101.583-.305.812-.205.228-.47.345-.798.345h-.95c-3.391 0-5.087-1.576-5.087-4.725zM0 22.62c0-.272.087-.539.26-.8.175-.26.384-.39.628-.39.164 0 .399.126.706.376.306.251.745.497 1.317.736.572.241 1.246.36 2.023.36 1.021 0 1.762-.187 2.222-.564.459-.375.69-.844.69-1.408 0-.688-.256-1.234-.767-1.643-.51-.406-1.134-.713-1.87-.922a44.854 44.854 0 0 1-2.206-.689 4.268 4.268 0 0 1-1.87-1.25c-.51-.584-.766-1.356-.766-2.315 0-1.19.414-2.217 1.241-3.082.828-.867 2.09-1.3 3.785-1.3 1.082 0 2.074.173 2.973.517.899.344 1.348.736 1.348 1.173 0 .25-.096.532-.29.844-.195.313-.435.47-.72.47-.082 0-.476-.15-1.18-.454a5.307 5.307 0 0 0-2.1-.453c-.939 0-1.639.223-2.099.673-.459.449-.69.954-.69 1.518 0 .584.256 1.042.767 1.377.511.334 1.139.594 1.885.782.746.188 1.486.418 2.222.688a4.18 4.18 0 0 1 1.869 1.394c.51.657.766 1.506.766 2.548 0 1.294-.45 2.317-1.348 3.068C7.897 24.623 6.64 25 5.026 25c-1.389 0-2.573-.256-3.555-.768C.491 23.72 0 23.182 0 22.619zM177.445 10.706c0-.323.182-.606.548-.849.366-.242.733-.364 1.098-.364.427 0 .7.172.822.516l4.023 10.556 3.63-10.556c.14-.344.403-.516.79-.516.345 0 .706.122 1.082.364.374.243.562.536.562.88 0 .1-.03.202-.092.303l-4.63 12.343-.58 1.518a26.13 26.13 0 0 1-.61 1.456c-.304.686-.559 1.182-.762 1.484-.203.303-.488.703-.851 1.199-.368.494-.722.853-1.069 1.076a6.597 6.597 0 0 1-1.233.607c-.478.181-.98.272-1.51.272-.791 0-1.187-.373-1.187-1.122 0-.728.241-1.093.731-1.093.913 0 1.802-.51 2.666-1.531.864-1.022 1.448-2.332 1.753-3.93l-5.059-12.284a.585.585 0 0 1-.122-.329zm-6.141 12.437V1.879c0-.262.116-.475.35-.636.234-.162.534-.243.9-.243s.67.081.914.243c.242.161.366.374.366.636v21.264c0 .223-.127.43-.381.621-.254.192-.555.29-.9.29s-.64-.092-.883-.274c-.245-.182-.366-.395-.366-.637zm-13.945-3.913c0 .506.352 1.098 1.052 1.774.702.679 1.5 1.016 2.393 1.016.913 0 1.721-.369 2.423-1.106.7-.738 1.05-1.573 1.05-2.502v-3.095c0-.908-.35-1.728-1.05-2.456-.702-.728-1.53-1.092-2.483-1.092-.895 0-1.683.329-2.363.986-.68.657-1.022 1.511-1.022 2.562v3.913zm-2.53 10.86V10.554c0-.263.119-.475.35-.637.235-.162.525-.243.87-.243.346 0 .63.081.854.243a.749.749 0 0 1 .335.637V11.8c.367-.647.904-1.193 1.616-1.638.71-.445 1.534-.667 2.468-.667 1.525 0 2.821.572 3.887 1.713 1.068 1.142 1.6 2.512 1.6 4.11v3.095c0 1.536-.537 2.903-1.614 4.096-1.08 1.193-2.328 1.79-3.75 1.79a4.595 4.595 0 0 1-2.454-.684c-.741-.456-1.286-1.015-1.63-1.683v8.16c0 .222-.126.43-.38.62a1.45 1.45 0 0 1-.9.289c-.345 0-.64-.091-.883-.272-.245-.183-.368-.396-.368-.639zm-13.7-10.86c0 .506.351 1.098 1.052 1.774.701.679 1.499 1.016 2.393 1.016.915 0 1.723-.369 2.423-1.106.701-.738 1.051-1.573 1.051-2.502v-3.095c0-.908-.35-1.728-1.051-2.456-.7-.728-1.53-1.092-2.484-1.092-.895 0-1.683.329-2.363.986-.68.657-1.02 1.511-1.02 2.562v3.913zM138.6 30.09V10.554c0-.263.117-.475.35-.637.234-.162.524-.243.87-.243.345 0 .63.081.853.243a.75.75 0 0 1 .335.637V11.8c.367-.647.904-1.193 1.617-1.638.711-.445 1.534-.667 2.469-.667 1.523 0 2.819.572 3.887 1.713 1.068 1.142 1.6 2.512 1.6 4.11v3.095c0 1.536-.538 2.903-1.616 4.096-1.077 1.193-2.326 1.79-3.75 1.79a4.587 4.587 0 0 1-2.453-.684c-.74-.456-1.285-1.015-1.63-1.683v8.16c0 .222-.125.43-.38.62a1.446 1.446 0 0 1-.899.289c-.346 0-.64-.091-.884-.272-.244-.181-.369-.396-.369-.639zM121.882 18.47v-7.886c0-.243.127-.454.382-.637.254-.183.553-.273.897-.273.326 0 .616.096.87.288.254.192.38.4.38.621v7.887c0 .91.346 1.728 1.038 2.456.69.729 1.513 1.093 2.468 1.093.935 0 1.748-.36 2.439-1.076.69-.72 1.037-1.543 1.037-2.473v-7.916c0-.222.127-.424.38-.606.254-.181.554-.273.9-.273.366 0 .665.086.9.258.232.172.35.38.35.621v7.916c0 1.559-.594 2.919-1.782 4.08-1.191 1.164-2.597 1.745-4.222 1.745-1.648 0-3.061-.582-4.25-1.745-1.191-1.163-1.787-2.523-1.787-4.08zM108 21.991c0-.264.085-.523.258-.775.174-.253.382-.378.625-.378.162 0 .397.12.701.363.306.244.742.482 1.31.714.57.234 1.241.35 2.013.35 1.014 0 1.75-.182 2.21-.548.456-.363.685-.818.685-1.364 0-.668-.254-1.197-.762-1.593-.508-.394-1.127-.692-1.859-.895a45.766 45.766 0 0 1-2.195-.667 4.253 4.253 0 0 1-1.859-1.213c-.509-.565-.76-1.314-.76-2.244 0-1.153.409-2.149 1.233-2.987.823-.84 2.077-1.26 3.765-1.26 1.076 0 2.063.167 2.957.501.894.334 1.341.713 1.341 1.137 0 .243-.097.515-.289.819-.194.303-.432.455-.718.455-.08 0-.472-.146-1.172-.44a5.387 5.387 0 0 0-2.088-.44c-.937 0-1.63.217-2.089.653-.458.435-.686.925-.686 1.471 0 .567.254 1.01.761 1.335.508.324 1.133.576 1.875.759.742.182 1.478.404 2.21.666a4.15 4.15 0 0 1 1.86 1.352c.509.637.762 1.46.762 2.47 0 1.255-.447 2.246-1.34 2.974-.895.728-2.144 1.093-3.75 1.093-1.382 0-2.561-.248-3.536-.745-.977-.496-1.463-1.018-1.463-1.564z"/>
        <path fill="#FFF" d="M82.367 18.733c0 .629.216 1.149.65 1.561.434.413 1.03.62 1.788.62.856 0 1.53-.283 2.023-.85l-3.251-3.473c-.807.603-1.21 1.318-1.21 2.142zM80 18.937c0-.802.217-1.537.65-2.208.434-.67.97-1.186 1.608-1.541-.842-.973-1.264-1.921-1.264-2.844 0-1.035.361-1.85 1.084-2.448C82.8 9.298 83.704 9 84.788 9c1.011 0 1.854.238 2.528.711.675.473 1.012.958 1.012 1.45 0 .271-.114.522-.343.757-.23.233-.482.351-.759.351a.809.809 0 0 1-.524-.212 2.886 2.886 0 0 1-.443-.462c-.126-.168-.32-.32-.578-.462a1.797 1.797 0 0 0-.876-.212c-.47 0-.855.135-1.157.406-.301.272-.451.647-.451 1.127 0 .148.018.3.054.453.036.153.102.317.198.489l.235.426c.06.11.168.263.325.462l.326.369.397.406 3.234 3.49c.096-.222.171-.458.225-.71.054-.253.088-.463.1-.63.012-.164.024-.37.036-.618.012-.247.024-.413.036-.497.024-.258.109-.447.252-.564.145-.117.41-.176.796-.176.385 0 .647.09.785.268.14.178.208.46.208.84 0 1.232-.337 2.426-1.012 3.583l1.464 1.551a.6.6 0 0 1 .144.407c0 .246-.111.471-.334.674a1.075 1.075 0 0 1-.75.305c-.204 0-.397-.092-.577-.276l-1.12-1.183C87.194 22.507 85.965 23 84.532 23c-1.348 0-2.442-.397-3.278-1.19-.837-.795-1.255-1.753-1.255-2.873z"/>
    </g>
</svg>
